<?xml version="1.0" standalone="no"?>
<!DOCTYPE svg PUBLIC "-//W3C//DTD SVG 20010904//EN"
 "http://www.w3.org/TR/2001/REC-SVG-20010904/DTD/svg10.dtd">
<svg version="1.0" xmlns="http://www.w3.org/2000/svg"
 width="300.000000pt" height="300.000000pt" viewBox="0 0 300.000000 300.000000"
 preserveAspectRatio="xMidYMid meet">
<metadata>
Created by potrace 1.10, written by Peter Selinger 2001-2011
</metadata>
<g transform="translate(0.000000,300.000000) scale(0.100000,-0.100000)"
fill="#000000" stroke="none">
<path d="M1289 2684 c-298 -53 -575 -227 -757 -472 -310 -419 -310 -1005 0
-1424 311 -420 856 -592 1351 -426 111 37 167 64 272 133 347 228 545 593 545
1005 0 407 -192 766 -535 1000 -135 91 -296 156 -462 185 -105 18 -311 18
-414 -1z m422 -19 c229 -38 449 -153 625 -329 141 -142 227 -281 289 -470 139
-424 28 -885 -289 -1202 -229 -228 -511 -345 -836 -345 -326 -1 -605 115 -836
345 -230 230 -345 510 -345 836 0 326 115 604 345 836 209 210 455 321 771
347 59 5 179 -3 276 -18z"/>
<path d="M1410 2527 l-35 -52 -3 48 c-3 43 -5 47 -29 47 -25 0 -26 -1 -19 -52
3 -29 6 -74 6 -100 0 -44 2 -48 25 -48 21 0 25 5 25 28 0 15 7 35 14 45 12 16
16 14 41 -23 21 -31 34 -40 56 -40 16 0 29 3 29 6 0 3 -18 27 -40 53 -46 54
-48 61 -19 87 11 10 25 27 30 36 8 15 5 18 -18 18 -23 0 -35 -11 -63 -53z"/>
<path d="M1560 2578 c-1 -2 -6 -46 -13 -99 l-13 -96 75 -11 c57 -8 77 -8 83 1
14 22 8 25 -53 32 -47 6 -59 10 -55 22 3 8 6 19 6 24 0 6 20 7 49 3 33 -4 51
-2 56 6 11 17 1 22 -55 28 -46 4 -50 7 -44 26 4 11 7 22 8 23 1 1 25 -1 53 -6
45 -7 52 -6 56 10 5 19 2 20 -105 34 -27 4 -48 5 -48 3z"/>
<path d="M1757 2531 c-4 -17 1 -22 29 -27 19 -3 34 -7 34 -8 0 0 -13 -36 -29
-79 l-29 -78 21 -8 c12 -5 23 -8 24 -7 1 1 13 35 26 76 24 77 27 79 75 64 17
-5 22 -2 22 13 0 15 -16 24 -72 42 -40 13 -78 26 -84 28 -6 2 -14 -5 -17 -16z"/>
<path d="M1150 2523 c-25 -9 -46 -17 -48 -18 -2 -2 9 -44 24 -94 25 -83 29
-91 52 -91 19 0 23 4 17 18 -3 9 -9 29 -12 43 -4 23 -1 27 24 32 33 6 49 -4
57 -39 5 -18 12 -24 22 -20 9 3 20 6 25 6 13 0 -11 52 -33 72 -11 10 -14 19
-8 23 16 10 12 51 -8 68 -23 21 -53 20 -112 0z m80 -27 c0 -2 3 -12 6 -20 5
-12 -4 -20 -31 -32 -42 -17 -40 -18 -49 18 -5 20 -2 28 11 31 24 6 63 8 63 3z"/>
<path d="M1967 2448 c-78 -127 -89 -150 -76 -159 24 -15 36 -10 49 20 l11 29
45 -25 c42 -24 46 -24 70 -8 14 9 29 28 35 42 13 35 -6 61 -70 96 l-50 28 -14
-23z m93 -80 c0 -25 -25 -33 -60 -18 -29 12 -29 13 -14 41 15 30 15 30 44 12
17 -9 30 -25 30 -35z"/>
<path d="M949 2433 l-25 -16 19 -101 c10 -56 20 -103 23 -105 9 -10 35 25 31
41 -4 14 6 26 35 44 38 24 41 25 59 8 18 -16 21 -16 35 -3 13 14 7 23 -62 82
-43 37 -80 67 -83 66 -3 0 -18 -8 -32 -16z m70 -105 c-27 -23 -39 -23 -39 1 0
10 -3 34 -6 52 l-7 34 37 -35 37 -35 -22 -17z"/>
<path d="M786 2322 l-28 -30 41 -71 c22 -39 37 -71 33 -71 -4 1 -36 18 -72 40
l-65 39 -30 -30 -30 -29 70 -70 c66 -65 71 -68 90 -54 19 15 18 18 -45 75 -36
32 -61 59 -57 59 4 0 42 -19 83 -41 72 -40 76 -41 89 -23 20 27 19 31 -25 104
-21 36 -36 67 -34 70 3 2 30 -24 61 -58 44 -50 58 -60 69 -51 23 19 16 31 -54
102 l-67 68 -29 -29z"/>
<path d="M2104 2280 c-33 -39 -60 -74 -61 -78 -1 -4 29 -33 67 -64 47 -39 73
-55 87 -52 14 4 27 -5 47 -30 23 -30 25 -38 14 -56 -10 -16 -10 -22 3 -35 15
-15 19 -11 56 47 21 35 47 74 56 88 16 24 15 27 -6 53 l-22 28 -89 -31 c-103
-34 -107 -35 -100 -16 3 9 -7 24 -25 37 -17 13 -31 26 -31 29 0 3 23 32 51 63
42 47 49 60 39 72 -7 8 -16 15 -20 15 -4 0 -34 -32 -66 -70z m230 -162 c-4 -7
-16 -25 -27 -41 l-19 -28 -20 26 c-23 30 -23 29 17 43 42 15 58 14 49 0z"/>
<path d="M1368 2260 c-155 -28 -304 -107 -414 -218 -94 -95 -152 -195 -196
-332 -19 -63 -23 -96 -23 -210 0 -114 4 -147 23 -210 85 -268 265 -448 532
-532 108 -33 312 -33 420 0 125 40 254 115 336 196 41 42 110 138 138 195 64
126 81 200 81 351 0 114 -4 147 -23 210 -53 168 -142 298 -272 399 -67 53
-163 102 -255 131 -78 24 -265 35 -347 20z m303 -31 c77 -16 224 -88 294 -144
117 -94 202 -219 251 -370 22 -67 27 -99 28 -200 1 -148 -12 -210 -74 -340
-132 -276 -417 -443 -721 -421 -104 7 -198 34 -304 89 -61 31 -102 63 -171
132 -77 76 -98 105 -137 185 -65 132 -81 201 -81 340 0 139 16 208 80 340 40
80 61 109 138 186 80 80 104 98 196 142 58 28 132 55 165 61 33 6 71 13 85 15
38 7 190 -2 251 -15z"/>
<path d="M1138 2000 c-47 -4 -63 -11 -91 -38 -19 -18 -38 -47 -43 -65 -5 -18
-9 -142 -7 -277 1 -135 2 -308 2 -386 1 -138 2 -142 29 -177 47 -62 47 -62
477 -62 434 0 415 -3 470 69 l26 34 0 395 c0 220 -5 405 -10 419 -11 30 -64
76 -94 83 -30 7 -689 11 -759 5z m772 -45 c59 -31 60 -37 60 -455 0 -418 -1
-424 -60 -455 -24 -13 -89 -15 -409 -15 -222 0 -390 4 -405 10 -14 5 -35 24
-46 42 -19 31 -20 51 -20 416 0 418 1 426 58 456 41 23 779 23 822 1z"/>
<path d="M1204 1872 c-6 -4 -34 -38 -62 -76 -49 -65 -52 -72 -52 -128 0 -65
21 -123 51 -139 17 -9 19 -23 19 -160 0 -243 0 -243 316 -247 228 -3 283 3
321 35 38 34 43 58 43 212 0 137 2 151 19 160 30 16 51 74 51 139 0 53 -4 65
-37 108 -20 27 -47 61 -61 77 l-26 27 -285 0 c-157 0 -291 -4 -297 -8z m607
-117 c39 -52 41 -58 37 -107 -12 -119 -128 -118 -128 1 0 51 -18 78 -45 67
-11 -4 -15 -20 -15 -54 0 -87 -56 -128 -107 -80 -18 17 -23 32 -23 74 0 37 -4
54 -15 58 -32 12 -45 -5 -45 -57 0 -38 -5 -56 -22 -74 -48 -52 -108 -8 -108
79 0 34 -4 50 -15 54 -27 11 -45 -16 -45 -67 0 -119 -116 -120 -128 -1 -4 49
-2 55 37 107 l42 55 269 0 269 0 42 -55z m-466 -236 c42 -25 104 -22 136 7 18
16 20 16 38 0 32 -29 94 -32 137 -7 32 19 38 20 53 7 9 -8 28 -18 44 -21 l27
-7 0 -133 c0 -164 -5 -173 -95 -176 l-60 -3 -1 118 c-1 89 -5 120 -15 127 -8
5 -60 9 -117 9 -85 0 -104 -3 -109 -16 -3 -9 -6 -66 -7 -127 l-1 -111 -60 3
c-90 3 -95 12 -95 176 l0 133 29 7 c16 3 35 13 42 21 14 18 11 18 54 -7z m215
-231 c0 -49 0 -91 0 -94 0 -4 -27 -6 -61 -6 l-61 0 1 91 c0 50 0 92 1 94 0 1
27 2 60 2 l60 0 0 -87z"/>
<path d="M533 1998 c-54 -60 -57 -106 -9 -154 28 -28 41 -34 78 -34 49 0 78
22 97 73 16 42 13 63 -13 93 l-23 28 -12 -23 c-10 -19 -10 -26 4 -41 22 -24
10 -68 -22 -83 -36 -16 -97 17 -101 55 -4 34 31 72 59 63 10 -4 19 -2 19 4 0
5 3 16 6 25 10 27 -58 21 -83 -6z"/>
<path d="M2371 1982 c-19 -9 -44 -29 -54 -44 -18 -25 -19 -32 -8 -69 16 -54
52 -89 91 -89 16 0 30 4 30 9 0 25 -14 41 -36 41 -24 0 -54 33 -54 61 0 24 33
49 72 56 29 4 38 1 52 -18 20 -29 20 -48 1 -69 -13 -14 -13 -19 -1 -36 14 -18
15 -18 35 0 41 37 17 130 -41 162 -31 18 -47 17 -87 -4z"/>
<path d="M438 1786 c-5 -24 -1 -26 51 -36 78 -15 101 -26 101 -49 0 -54 -21
-61 -122 -37 -55 13 -56 13 -61 -10 -4 -21 2 -24 66 -38 38 -9 77 -16 86 -16
28 0 62 45 68 87 7 54 -17 81 -87 97 -30 7 -65 16 -76 20 -17 5 -22 2 -26 -18z"/>
<path d="M2470 1764 c-36 -7 -74 -16 -86 -19 -20 -4 -20 -6 -5 -80 13 -61 19
-75 34 -75 20 0 20 17 0 98 -4 18 -1 22 20 22 22 0 27 -6 33 -37 9 -52 17 -64
33 -54 11 7 12 17 3 52 -12 48 -9 59 18 59 14 0 20 -11 25 -51 6 -46 26 -72
42 -56 3 4 -1 39 -8 79 -10 49 -19 73 -29 75 -8 0 -44 -5 -80 -13z"/>
<path d="M501 1419 c-1 -30 -26 -55 -61 -62 l-25 -4 26 -2 c32 -1 59 -29 60
-62 1 -26 4 -20 13 23 5 20 15 30 39 37 22 6 26 9 11 10 -26 1 -51 28 -57 61
l-4 25 -2 -26z"/>
<path d="M2491 1425 c-2 -34 -30 -65 -59 -66 l-27 -2 25 -4 c34 -7 49 -20 59
-57 8 -28 9 -29 10 -6 2 35 13 49 47 60 22 6 24 8 8 9 -26 1 -51 28 -57 61 -3
19 -5 20 -6 5z"/>
<path d="M523 1213 c-24 -8 -43 -19 -43 -24 0 -4 7 -6 16 -2 9 3 24 -3 35 -16
16 -17 24 -20 35 -10 15 12 18 37 6 55 -5 8 -19 7 -49 -3z"/>
<path d="M2416 1204 c-9 -24 -7 -31 11 -38 10 -4 25 2 38 14 26 25 44 10 19
-15 -20 -20 -11 -33 11 -15 19 16 19 49 0 57 -9 3 -25 -3 -35 -12 -23 -21 -39
-13 -20 10 10 12 10 15 -3 15 -8 0 -18 -7 -21 -16z"/>
<path d="M2364 1071 c-11 -27 -10 -29 31 -49 l42 -21 12 26 c14 31 7 43 -9 14
-15 -28 -31 -17 -25 17 5 26 5 26 -6 4 -7 -12 -17 -21 -23 -19 -12 5 -12 11
-1 40 4 9 3 17 -2 17 -5 0 -13 -13 -19 -29z"/>
<path d="M573 1073 c-36 -18 -44 -34 -13 -26 21 5 28 -11 10 -22 -5 -3 -10
-11 -10 -17 0 -6 7 -5 18 4 9 9 22 14 28 11 17 -6 34 21 27 45 -6 26 -16 26
-60 5z"/>
<path d="M640 940 c-24 -24 -25 -43 -4 -64 18 -19 38 -20 65 -6 23 13 25 53 3
74 -21 21 -40 20 -64 -4z m61 -16 c11 -14 10 -19 -10 -35 -18 -15 -27 -17 -37
-8 -17 14 -18 31 -2 47 16 16 33 15 49 -4z"/>
<path d="M2292 948 c-29 -29 -1 -78 44 -78 30 0 55 43 36 62 -9 9 -12 6 -12
-14 0 -34 -28 -45 -53 -19 -21 21 -16 38 17 51 20 9 20 9 1 9 -12 1 -26 -4
-33 -11z"/>
<path d="M752 805 l-32 -33 26 -21 c33 -26 39 -26 64 -1 26 26 25 42 -2 67
l-23 21 -33 -33z m53 -20 c0 -25 -31 -43 -46 -28 -10 10 -8 17 6 33 21 24 40
21 40 -5z"/>
<path d="M2233 804 c21 -20 41 -33 45 -30 9 9 -49 66 -67 66 -10 0 -2 -13 22
-36z"/>
<path d="M2144 758 c4 -13 10 -32 13 -42 6 -18 4 -18 -30 3 -21 12 -37 18 -37
12 0 -11 79 -55 86 -48 8 7 -20 97 -29 97 -5 0 -6 -10 -3 -22z"/>
<path d="M881 704 c-23 -29 -24 -34 -15 -58 10 -26 48 -19 73 15 31 41 19 50
-15 10 -21 -25 -29 -29 -40 -20 -12 9 -10 16 7 41 27 37 18 48 -10 12z"/>
<path d="M1994 667 c-10 -5 -20 -11 -22 -13 -4 -3 49 -84 55 -84 2 0 0 12 -3
26 -6 24 -5 25 16 14 26 -14 37 -8 15 10 -8 7 -15 20 -15 30 0 23 -21 31 -46
17z"/>
<path d="M1016 621 c-33 -37 -2 -95 40 -76 17 8 17 9 -6 13 -31 5 -41 21 -29
44 12 23 38 23 55 1 11 -15 13 -16 14 -2 0 38 -46 51 -74 20z"/>
<path d="M1873 607 c-27 -12 -28 -17 -9 -62 16 -38 32 -43 62 -19 18 15 18 15
-8 10 -34 -8 -46 9 -17 24 11 7 18 14 16 17 -3 2 -15 0 -26 -7 -17 -9 -21 -8
-21 4 0 8 8 19 17 25 25 14 13 21 -14 8z"/>
<path d="M1170 580 c0 -4 5 -10 10 -12 7 -2 7 -14 -1 -35 -6 -18 -9 -38 -6
-45 2 -7 10 6 17 30 9 28 18 41 27 38 7 -3 13 -1 13 3 0 5 -13 14 -30 20 -16
5 -30 6 -30 1z"/>
<path d="M1725 557 c-22 -17 -9 -47 21 -47 15 0 24 -6 24 -16 0 -13 -6 -15
-27 -9 -21 5 -25 4 -17 -5 7 -6 22 -10 35 -8 33 4 32 40 0 48 -14 3 -27 12
-29 19 -3 10 1 12 17 8 23 -6 29 8 7 16 -8 3 -21 0 -31 -6z"/>
<path d="M1309 534 c-11 -14 -10 -19 9 -34 23 -19 29 -40 12 -40 -5 0 -13 8
-19 17 -5 10 -13 15 -17 11 -11 -11 16 -38 38 -38 29 0 35 30 10 51 -12 9 -22
20 -22 23 0 11 28 6 33 -6 4 -8 6 -7 6 3 1 9 -6 20 -15 23 -21 8 -20 8 -35
-10z"/>
<path d="M1460 515 c0 -8 -6 -24 -12 -35 -10 -16 -10 -23 5 -37 14 -14 21 -15
36 -6 12 7 22 8 28 2 6 -6 10 1 10 21 0 21 -4 27 -11 20 -6 -6 -16 -4 -28 7
-24 22 -23 36 3 28 15 -5 19 -4 15 4 -11 16 -46 13 -46 -4z"/>
</g>
</svg>
